<svg id="fanqie" viewBox="0 0 418.37284 399.45883" width="110.69448mm" height="105.69015mm" xmlns="http://www.w3.org/2000/svg" xmlns:svg="http://www.w3.org/2000/svg">
  <rect style="opacity:1;fill:none;stroke:#c90000;stroke-width:9.857;stroke-linecap:round;stroke-linejoin:round;stroke-dasharray:none;stroke-opacity:1;paint-order:markers stroke fill" id="rect844" width="408.51584" height="389.60184" x="4.9285002" y="4.9285002" />
  <g transform="matrix(0.91586409,0,0,0.94047476,15.057008,7.6707051)" id="g490" style="fill:#c90000;fill-opacity:1">
    <path id="fan" fill="CurrentColor" d="m 50,35 v 0.136842 L 57.2,34 l 13,-1.8 12.7,-1.8 12.4,-1.7 11.9,-1.7 11.7,-1.7 11.3,-1.7 11,-1.8 10.6,-1.8 9.31351,-1.64356 L 161.1,18.3 161.1584,18.34852 162,18.2 162.15755,19.178446 173.5,28.6 173.8,31.5 169.37885,29.201001 163.9,30 l -10.5,1.3 -10.8,1.1 -11.2,1.1 -11.4,1 -11.8,1 L 96,36.3 83.5,37 70.7,37.5 57.5,37.8 H 50 V 75 h 97 l 6,-5 11,9 -5,3 -1.85579,0.773245 L 152.2,95.4 l -7.8,15.4 -9.1,14.2 -10.3,12.9 -6.81257,6.81257 5.11257,4.18743 11.4,7.3 12.3,6 13.2,4.8 14.2,3.5 8.9,2 -11.8,10.9 -15.2,-4.6 -14.2,-5.9 L 129,165.6 117.1,157 111.04794,151.39624 100.5,159.9 l -14,9 -15.2,7.7 -16.5,6.3 -17.6,4.9 -0.5,-1.7 16.7,-6.7 15.5,-7.6 14.1,-8.5 12.9,-9.4 9.1796,-8.30912 L 96.6,135.8 88.2,123.3 80.9,109.5 75,94.4 70.62716,79 H 50 v 4 l -0.7,14.2 -1.2,13.5 -2,12.6 -2.6,11.9 -3.2,11 -4,10.1 -4.6,9.3 -5.3,8.4 -6.1,7.3 -6.7,6.3 -1.3,-1.3 5,-7.3 4.5,-7.9 4,-8.4 3.5,-9.1 2.8,-9.9 2.4,-10.6 1.7,-11.3 1.2,-12.2 L 38,96.7 V 29 Z M 72.713072,79 78.8,92.9 l 7.4,13.9 8,12.5 8.9,11.2 8.39543,8.48198 L 117.9,131.9 l 9.1,-12.6 8,-13.6 6.7,-14.8 4.14241,-11.9 z" style="fill:#c90000;fill-opacity:1" />
  </g>
  <g id="qie-left" fill="CurrentColor" transform="translate(259.92452,93.097953)" style="fill:#c90000;fill-opacity:1">
    <path d="m 42.301435,15.999349 11.99951,2.001953 2.99886,1.997884 -2.99886,1.798503 v 54.862467 l 16.8335,-2.461751 8.46761,-11.397298 13.39925,8.199056 0.50049,3.898112 -39.20085,5.737304 v 65.531411 l 4.59799,-3.06803 4.90315,-3.29997 5.09847,-3.39762 5.2002,-3.60108 5.29785,-3.80045 5.5013,-3.89811 5.79834,-3.90219 6.00179,-3.89811 1.09864,1.29802 -4.69971,5.5013 -4.69971,5.09847 -4.79736,4.89909 -4.80143,4.60205 -4.69971,4.30094 -4.60205,4.19922 -4.59798,3.89811 -4.50033,3.80046 -4.3986,3.60107 -4.40267,3.4017 -0.08138,-0.11801 -5.21647,5.21648 -10.00163,-10.00163 6.00179,-5.99772 V 82.393392 l -30.80241,4.508463 -0.50049,-3.902181 31.3029,-4.581705 z" transform="translate(-54.398619,-91.499852)" id="path492" style="fill:#c90000;fill-opacity:1" />
  </g>
  <g id="qie-right" fill="CurrentColor" transform="translate(331.07726,109.44795)">
    <path d="m 177.299,30.000814 11.0026,9.000651 -4.95199,2.970377 0.15056,16.630046 -0.10173,19.799805 -0.19938,17.997233 -0.79753,16.101074 -0.90332,14.20085 -1.19629,12.39827 -1.60319,10.59977 -1.99788,8.80127 -2.50244,7.19808 -3.19824,5.70069 -1.50147,1.90022 -1.69678,1.80258 -1.80257,1.59912 -1.99788,1.39974 -2.09961,1.20035 -2.10368,1.00098 -2.29899,0.69987 -2.29899,0.49642 -2.40072,0.30111 -2.49837,0.19938 v -5.99772 l -19.99919,-3.00293 v -2.99886 h 19.99919 l 1.4974,-0.0977 1.20035,-0.20345 1.30209,-0.29704 1.09863,-0.30111 1.09863,-0.50048 1.00098,-0.59815 1.00098,-0.69987 1.00097,-0.80159 0.89925,-1.00098 0.89926,-1.20036 1.90022,-3.29996 1.79851,-5.69662 1.80257,-7.80029 1.49739,-9.8999 1.20036,-11.90186 0.90332,-13.89974 0.79753,-15.799967 0.19938,-17.700196 0.10173,-19.698079 -0.10987,-11.63737 -0.0895,0.03662 V 39.001424 H 129.30097 V 77.99882 l -1.00098,14.80306 -2.20133,14.09912 -3.39763,13.19987 -4.80143,12.30062 -5.90006,11.3973 -7.29981,10.40039 -8.398435,9.50114 -9.70052,8.39844 -10.90088,7.40153 -11.99951,6.20117 -0.89925,-1.50147 10.79915,-7.80029 9.50114,-8.30078 8.29671,-8.89893 7.20215,-9.39941 5.900065,-10.20101 4.89909,-10.79915 3.60107,-11.49903 2.6001,-12.40234 1.39974,-13.000491 0.30111,-13.899739 V 39.001465 H 89.298505 v -3.999837 h 82.002765 z" transform="translate(-125.55136,-107.85113)" id="path495" style="fill:#c90000;fill-opacity:1" />
  </g>
  <path d="m 34.403568,210.04742 c 7.385027,5.27503 16.704229,14.77007 19.869242,22.50675 12.660048,7.03338 19.517573,-18.11089 -18.286738,-24.08926 z m -10.198374,39.56265 c 7.209195,4.74753 15.649227,13.36338 17.759235,20.74841 12.484213,7.2092 19.869243,-17.40755 -16.000894,-22.33091 z m 47.651015,-10.02252 c -30.067614,69.1029 -30.067614,69.10277 -33.056791,75.43277 -1.758339,3.34086 -2.285843,3.5167 -4.39585,3.5167 h -7.736697 v 3.86835 c 3.692515,0.35167 6.154191,0.70347 8.615867,2.46165 3.868347,2.63752 4.92335,16.5284 2.461674,34.63932 0.351669,5.45084 2.461676,8.61585 5.450855,8.61585 5.802523,0 9.319202,-4.57168 9.670871,-11.9567 0.703334,-14.41839 -4.39585,-22.68259 -4.571686,-30.59512 0,-4.22001 1.230841,-9.67087 2.63751,-15.12174 2.63751,-8.08835 16.880065,-48.35433 24.265094,-69.98193 z m 57.849371,51.51937 h 30.41929 v 5.97833 h 1.75835 c 0.70333,0 1.40667,-0.17582 2.28583,-0.17582 l -7.56085,9.14337 h -27.07844 c 0.17582,-2.81334 0.17582,-5.6267 0.17582,-8.44003 z m -40.617639,-5.09921 v -19.86924 h 29.364289 v 19.86924 z m 71.036929,-19.86924 v 19.86924 h -30.41929 v -19.86924 z m -51.51935,-23.38591 v -12.48422 h 31.47427 v 12.48422 z m 73.32277,88.09283 c 2.46167,0 4.22002,-0.87917 4.57168,-2.81335 -5.62669,-5.45084 -15.12173,-12.48421 -15.12173,-12.48421 l -7.91252,10.02254 h -37.45265 c 1.58251,-4.57168 2.46169,-9.31905 2.98919,-14.2424 h 45.71684 c 2.46166,0 4.22001,-0.87934 4.57168,-2.81349 -4.92335,-4.57169 -12.48423,-10.37407 -14.41839,-11.7809 3.16501,-0.87916 6.33004,-2.46165 6.50585,-3.16486 v -25.32024 c 3.16503,-0.70332 5.97837,-2.11001 7.2092,-3.51667 l -13.89087,-10.37421 -6.15421,6.50585 h -28.83678 v -13.01171 h 10.37421 v 4.04418 h 2.28585 c 4.04418,0 8.61588,-1.40667 8.61588,-2.28585 v -19.34173 h 31.29844 c 2.46167,0 3.86835,-0.87917 4.39585,-2.81334 -5.45086,-5.45086 -14.41839,-12.30838 -14.41839,-12.30838 l -7.73671,10.02254 h -13.53919 v -11.42922 c 4.39583,-0.52735 5.80251,-2.28583 6.33001,-4.74752 l -17.23174,-1.93417 v 18.11091 h -31.47427 v -11.42922 c 4.22001,-0.52735 5.80252,-2.28583 6.33003,-4.74752 l -17.055911,-1.93417 v 18.11091 H 67.987861 l 1.406673,5.09918 h 28.485105 v 22.50675 h 2.110015 c 4.044176,0 8.615866,-1.40667 8.615866,-2.28584 v -2.63751 h 9.84671 v 13.01171 H 89.967112 l -11.605043,-5.09918 v 43.07933 h 1.582505 c 4.220017,0 9.143367,-2.46166 9.143367,-3.51666 v -4.22002 h 29.364289 v 6.68167 c 0,2.81335 0,5.6267 -0.17584,8.26421 H 73.966219 l 1.406671,5.27517 h 42.376 c -0.52751,5.09917 -1.58251,9.84654 -2.98918,14.2424 H 66.757024 l 1.406673,5.27502 h 44.310173 c -7.03336,14.41838 -21.451754,25.14426 -49.585195,34.46347 l 1.582507,2.63751 c 35.342632,-8.08836 52.046868,-20.57259 59.607738,-37.10098 h 5.09917 c 9.84671,19.16591 25.67176,30.77095 48.17852,36.92513 1.23083,-5.97834 4.92335,-9.49503 9.67086,-10.9017 l 0.17585,-1.93417 c -21.80341,-2.63752 -41.67266,-10.55004 -53.2777,-24.08926 z" fill="currentColor" id="path2" style="stroke-width:14.6529" />
  <path d="m 369.74797,233.06312 v 56.76234 h -26.58639 l 1.61665,5.38883 h 24.96974 v 10.77764 h 1.79478 c 3.59255,0 9.1625,-2.69441 9.34212,-3.77217 v -67.53999 c 3.05367,-0.53888 5.74809,-1.9759 6.64622,-3.23329 l -13.29244,-10.59803 -6.10733,6.82586 h -24.609 l 1.61516,5.38881 z m -42.75287,0 v 24.24974 h -33.76999 v -24.24974 z m -33.76999,54.6068 v -25.14771 h 33.76999 v 25.14771 z m 0,5.20921 h 33.76999 v 6.82584 h 1.79777 c 3.59255,0 8.98138,-2.69442 9.161,-3.95181 v -61.61227 c 2.69442,-0.53873 5.02958,-1.79626 6.10735,-2.87403 l -12.57393,-9.87953 -5.92773,6.28698 h -19.5794 c 3.23329,-4.4907 7.00548,-9.69989 9.52027,-14.01096 3.59255,0 5.74807,-1.43702 6.28697,-3.95182 l -17.42389,-3.41291 c -0.89813,6.10733 -2.69441,15.08871 -3.77367,21.37569 h -6.4651 l -11.67579,-5.38883 v 79.03614 h 1.79626 c 4.4907,0 8.9799,-2.51478 8.9799,-3.59255 z m -17.06313,-13.47208 c -8.62363,4.13144 -17.24424,8.26287 -24.42936,11.6758 v -55.50493 c 8.62213,-2.69442 17.60351,-6.64622 22.45346,-9.16102 2.15552,0.89815 3.95181,0.89815 4.67032,-0.17962 l -10.41991,-10.23877 c -2.87404,3.05366 -8.441,7.90361 -14.00945,12.57393 L 240.77385,224.441 v 65.74371 c 0,3.05367 -0.89664,4.13143 -6.10586,6.64622 l 7.00399,14.19058 c 1.43703,-0.71851 3.2348,-2.51478 4.49219,-5.02958 12.75357,-9.52025 24.96824,-19.5794 31.43482,-24.42934 z m -45.44728,91.96934 c 44.54765,-11.85543 57.3027,-34.66813 61.61227,-59.45675 3.77217,0 6.10883,-1.25739 6.82735,-3.9518 l -18.86091,-3.77217 c -1.61665,26.58488 -12.21467,50.83461 -50.83461,64.66592 z m 156.99452,-39.15883 h -2.33516 c -1.9759,9.87953 -3.77068,19.04053 -5.38732,21.73495 -0.71851,1.79628 -1.43703,2.15554 -3.23329,2.33516 -2.5148,0.35925 -9.16251,0.35925 -17.42539,0.35925 h -18.50013 c -6.82586,0 -7.54437,-0.71851 -7.54437,-3.41293 v -42.75136 c 3.23329,-0.71851 5.02957,-2.15554 5.38883,-4.4907 l -16.88499,-1.79626 v 51.37348 c 0,8.98138 2.87403,11.6758 17.24424,11.6758 h 19.93716 c 28.56229,0 34.49,-1.9759 34.49,-7.36474 0,-2.33516 -1.07775,-3.77216 -5.20919,-5.02957 z" fill="currentColor" id="path4" style="stroke-width:14.969" />
</svg>